<svg width="120" height="41" viewBox="0 0 120 41" fill="none" xmlns="http://www.w3.org/2000/svg">
<g clip-path="url(#clip0)">
<path d="M116.262 25.2047L119.591 27.4405C118.511 29.0439 115.927 31.7946 111.459 31.7946C105.911 31.7946 101.779 27.47 101.779 21.9686C101.779 16.1142 105.954 12.1426 110.992 12.1426C116.058 12.1426 118.54 16.2024 119.343 18.3942L119.781 19.5121L106.728 24.9546C107.721 26.9257 109.269 27.926 111.459 27.926C113.649 27.926 115.167 26.8375 116.262 25.2047ZM106.027 21.6597L114.744 18.0117C114.262 16.7908 112.831 15.9229 111.123 15.9229C108.948 15.9229 105.925 17.8646 106.027 21.6597Z" fill="#FF302F"/>
<path d="M72.4465 21.9686C72.4465 27.6318 68.0663 31.7946 62.6934 31.7946C57.3204 31.7946 52.9403 27.6318 52.9403 21.9686C52.9403 16.276 57.3204 12.1426 62.6934 12.1426C68.0663 12.1426 72.4465 16.2613 72.4465 21.9686ZM68.1685 21.9686C68.1685 18.4383 65.6281 16.0112 62.6788 16.0112C59.7295 16.0112 57.189 18.4383 57.189 21.9686C57.189 25.4695 59.7295 27.926 62.6788 27.926C65.6427 27.926 68.1685 25.4548 68.1685 21.9686Z" fill="#FFBA40"/>
<path d="M88.8573 12.9075H92.9162V30.3825C92.9162 37.6343 88.6675 40.6204 83.645 40.6204C78.9145 40.6204 76.0674 37.4137 75.0015 34.8101L78.7246 33.2509C79.3963 34.8542 81.0169 36.7518 83.645 36.7518C86.8717 36.7518 88.8573 34.7366 88.8573 30.9709V29.5588H88.7113C87.7477 30.7356 85.908 31.7946 83.572 31.7946C78.6954 31.7946 74.2277 27.5142 74.2277 21.9981C74.2277 16.4525 78.6954 12.1279 83.572 12.1279C85.8934 12.1279 87.7477 13.1723 88.7113 14.3197H88.8573V12.9075ZM89.1493 21.9981C89.1493 18.5266 86.8571 15.9966 83.937 15.9966C80.9877 15.9966 78.5056 18.5266 78.5056 21.9981C78.5056 25.4254 80.9877 27.9113 83.937 27.9113C86.8571 27.926 89.1493 25.4254 89.1493 21.9981Z" fill="#3686F7"/>
<path d="M51.1444 21.9245C51.1444 27.5876 46.7643 31.7505 41.3914 31.7505C36.0184 31.7505 31.6383 27.5729 31.6383 21.9245C31.6383 16.2318 36.0184 12.0837 41.3914 12.0837C46.7643 12.0837 51.1444 16.2318 51.1444 21.9245ZM46.8811 21.9245C46.8811 18.3942 44.3406 15.9671 41.3914 15.9671C38.4421 15.9671 35.9016 18.3942 35.9016 21.9245C35.9016 25.4253 38.4421 27.8818 41.3914 27.8818C44.3406 27.8818 46.8811 25.4253 46.8811 21.9245Z" fill="#FF302F"/>
<path d="M95.4859 2.12537H99.6908V30.8973H95.4859V2.12537Z" fill="#20B15A"/>
<path d="M15.607 27.4846C9.48947 27.4846 4.70054 22.5128 4.70054 16.3495C4.70054 10.1862 9.48947 5.21433 15.607 5.21433C18.9067 5.21433 21.3158 6.52348 23.0971 8.20037L26.0317 5.24375C23.5497 2.84608 20.2354 1.02209 15.607 1.02209C7.22641 1.02209 0.174408 7.90618 0.174408 16.3495C0.174408 24.7928 7.22641 31.6769 15.607 31.6769C20.1332 31.6769 23.5497 30.1765 26.2215 27.3817C28.9664 24.6163 29.8132 20.7329 29.8132 17.5851C29.8132 16.5995 29.6964 15.5846 29.565 14.8344H15.607V18.9237H25.5499C25.2579 21.4831 24.4549 23.2336 23.2723 24.4251C21.8414 25.8813 19.5784 27.4846 15.607 27.4846Z" fill="#3686F7"/>
</g>
<defs>
<clipPath id="clip0">
<rect width="120" height="39.6694" fill="white" transform="translate(0 0.960938)"/>
</clipPath>
</defs>
</svg>
